<svg width="24" height="16" viewBox="0 0 24 16" fill="none" xmlns="http://www.w3.org/2000/svg">
<path d="M0.949951 16.0001V13.6501C0.949951 13.0668 1.09995 12.5376 1.39995 12.0626C1.69995 11.5876 2.11662 11.2334 2.64995 11.0001C3.86662 10.4668 4.96245 10.0834 5.93745 9.8501C6.91245 9.61676 7.91662 9.5001 8.94995 9.5001C9.98328 9.5001 10.9833 9.61676 11.95 9.8501C12.9166 10.0834 14.0083 10.4668 15.225 11.0001C15.7583 11.2334 16.1791 11.5876 16.4875 12.0626C16.7958 12.5376 16.95 13.0668 16.95 13.6501V16.0001H0.949951ZM18.45 16.0001V13.6501C18.45 12.6001 18.1833 11.7376 17.65 11.0626C17.1166 10.3876 16.4166 9.84176 15.55 9.4251C16.7 9.55843 17.7833 9.75426 18.8 10.0126C19.8166 10.2709 20.6416 10.5668 21.275 10.9001C21.825 11.2168 22.2583 11.6084 22.575 12.0751C22.8916 12.5418 23.05 13.0668 23.05 13.6501V16.0001H18.45ZM8.94995 7.9751C7.84995 7.9751 6.94995 7.6251 6.24995 6.9251C5.54995 6.2251 5.19995 5.3251 5.19995 4.2251C5.19995 3.1251 5.54995 2.2251 6.24995 1.5251C6.94995 0.825098 7.84995 0.475098 8.94995 0.475098C10.05 0.475098 10.95 0.825098 11.65 1.5251C12.35 2.2251 12.7 3.1251 12.7 4.2251C12.7 5.3251 12.35 6.2251 11.65 6.9251C10.95 7.6251 10.05 7.9751 8.94995 7.9751ZM17.95 4.2251C17.95 5.3251 17.6 6.2251 16.9 6.9251C16.2 7.6251 15.3 7.9751 14.2 7.9751C14.0166 7.9751 13.8125 7.9626 13.5875 7.9376C13.3625 7.9126 13.1583 7.86676 12.975 7.8001C13.375 7.38343 13.6791 6.87093 13.8875 6.2626C14.0958 5.65426 14.2 4.9751 14.2 4.2251C14.2 3.4751 14.0958 2.8126 13.8875 2.2376C13.6791 1.6626 13.375 1.13343 12.975 0.650098C13.1583 0.600098 13.3625 0.558431 13.5875 0.525098C13.8125 0.491764 14.0166 0.475098 14.2 0.475098C15.3 0.475098 16.2 0.825098 16.9 1.5251C17.6 2.2251 17.95 3.1251 17.95 4.2251ZM2.44995 14.5001H15.45V13.6501C15.45 13.3834 15.3708 13.1251 15.2125 12.8751C15.0541 12.6251 14.8583 12.4501 14.625 12.3501C13.425 11.8168 12.4166 11.4584 11.6 11.2751C10.7833 11.0918 9.89995 11.0001 8.94995 11.0001C7.99995 11.0001 7.11245 11.0918 6.28745 11.2751C5.46245 11.4584 4.44995 11.8168 3.24995 12.3501C3.01662 12.4501 2.82495 12.6251 2.67495 12.8751C2.52495 13.1251 2.44995 13.3834 2.44995 13.6501V14.5001ZM8.94995 6.4751C9.59995 6.4751 10.1375 6.2626 10.5625 5.8376C10.9875 5.4126 11.2 4.8751 11.2 4.2251C11.2 3.5751 10.9875 3.0376 10.5625 2.6126C10.1375 2.1876 9.59995 1.9751 8.94995 1.9751C8.29995 1.9751 7.76245 2.1876 7.33745 2.6126C6.91245 3.0376 6.69995 3.5751 6.69995 4.2251C6.69995 4.8751 6.91245 5.4126 7.33745 5.8376C7.76245 6.2626 8.29995 6.4751 8.94995 6.4751Z" fill="#090C11"/>
</svg>
