<svg width="100" height="30" viewBox="0 0 100 30" fill="none" xmlns="http://www.w3.org/2000/svg">
<path d="M5.72549 29.9948C5.09662 29.9949 4.49294 29.7488 4.04492 29.3096L0.688807 25.969C0.465193 25.7435 0.289117 25.4758 0.1709 25.1816C0.0526728 24.8874 -0.00529891 24.5726 0.000380351 24.2558V4.69377e-07H3.91832V25.1931C3.92086 25.3216 3.94935 25.4484 4.002 25.5659C4.05454 25.6833 4.1303 25.7891 4.22464 25.877C4.31907 25.9648 4.4302 26.0329 4.55143 26.0772C4.67266 26.1217 4.80171 26.1413 4.93077 26.1353H19.742V29.9898L5.72549 29.9948Z" fill="#090C11"/>
<path d="M25.8168 4.80188V12.1633C25.8221 12.4132 25.9259 12.6511 26.1059 12.8255C26.2858 12.9998 26.5274 13.0969 26.7786 13.0955H38.7856V16.95H27.5125C26.8847 16.955 26.2805 16.7123 25.832 16.2748L25.7915 16.2345V25.1881C25.7928 25.3149 25.8195 25.4402 25.8701 25.5565C25.9206 25.673 25.994 25.7781 26.0859 25.8658C26.1779 25.9537 26.2865 26.0222 26.4055 26.0677C26.5244 26.113 26.6512 26.1344 26.7786 26.1304H43.8729V30H27.5125C27.2002 30.0001 26.8909 29.9387 26.6025 29.8193C26.314 29.7 26.0522 29.5252 25.832 29.3047L22.562 26.0497C22.3398 25.8313 22.1639 25.5707 22.0448 25.2833C21.9257 24.996 21.8657 24.6878 21.8685 24.3769V5.60813C21.8625 5.29678 21.9209 4.98759 22.0403 4.69978C22.1596 4.41203 22.3371 4.15177 22.562 3.93527L25.832 0.680316C26.053 0.461916 26.3153 0.289341 26.6038 0.172576C26.8923 0.0558099 27.2011 -0.00281197 27.5125 0.000103651H43.8729V3.85464H26.7786C26.5253 3.85463 26.2822 3.95411 26.1021 4.13147C25.922 4.30884 25.8194 4.54974 25.8168 4.80188Z" fill="#090C11"/>
<path d="M53.0343 29.9948C52.8818 29.9987 52.7301 29.9701 52.5897 29.911C52.4491 29.852 52.3228 29.7638 52.2193 29.6522L47.2231 24.6136C47.1107 24.5097 47.0219 24.3833 46.9625 24.2424C46.9032 24.1017 46.8747 23.9499 46.8789 23.7973V14.9294H50.7968V24.9563C50.7783 25.1182 50.7967 25.2822 50.8506 25.4362C50.9046 25.5901 50.9928 25.7299 51.1085 25.8451C51.2244 25.9604 51.3649 26.0482 51.5195 26.1019C51.6741 26.1556 51.8389 26.1739 52.0016 26.1554H54.7553L68.3619 5.62809V4.69377e-07H72.2799V6.12694C72.2878 6.46603 72.1807 6.79791 71.9762 7.06913L56.9522 29.6522C56.7396 29.9948 56.4764 29.9948 56.1321 29.9948H53.0343Z" fill="#6ECE6E"/>
<path d="M99.3107 4.03089C99.5361 4.2552 99.7135 4.5227 99.8314 4.81716C99.9503 5.11163 100.007 5.427 99.9993 5.74406V24.2558C100.006 24.5728 99.9484 24.8879 99.8305 25.1823C99.7125 25.4766 99.5352 25.7442 99.3107 25.969L95.955 29.3096C95.5078 29.7502 94.9031 29.9966 94.2748 29.9948H81.4473C80.8181 29.9966 80.2138 29.7502 79.7667 29.3096L76.4106 25.969C76.1861 25.7442 76.0094 25.4766 75.8912 25.1823C75.7729 24.8879 75.7153 24.5728 75.7222 24.2558V5.74406C75.7178 5.42513 75.7788 5.10872 75.9015 4.81416C76.0243 4.5196 76.2061 4.25307 76.436 4.03089L79.792 0.685257C80.2392 0.244632 80.8434 -0.00175264 81.4726 9.86061e-06H94.2993C94.9286 -0.00175264 95.5333 0.244632 95.9805 0.685257L99.3107 4.03089ZM96.0814 4.80178C96.0795 4.67301 96.0512 4.54591 95.9993 4.42812C95.9465 4.31033 95.871 4.20428 95.7767 4.11631C95.6823 4.02833 95.571 3.96025 95.4493 3.91614C95.3276 3.87204 95.1984 3.8528 95.0691 3.85958H80.6019C80.4727 3.8528 80.3434 3.87204 80.2218 3.91614C80.1002 3.96025 79.9889 4.02833 79.8944 4.11631C79.7998 4.20428 79.7241 4.31033 79.6717 4.42812C79.6194 4.54591 79.5914 4.67301 79.5896 4.80178V25.1931C79.5914 25.3219 79.6194 25.449 79.6717 25.5667C79.7241 25.6845 79.7998 25.7906 79.8944 25.8786C79.9889 25.9665 80.1002 26.0347 80.2218 26.0787C80.3434 26.1229 80.4727 26.1421 80.6019 26.1353H95.0691C95.1984 26.1421 95.3276 26.1229 95.4493 26.0787C95.571 26.0347 95.6823 25.9665 95.7767 25.8786C95.871 25.7906 95.9465 25.6845 95.9993 25.5667C96.0512 25.449 96.0795 25.3219 96.0814 25.1931V4.80178Z" fill="#090C11"/>
</svg>
